<svg version="1.2" xmlns="http://www.w3.org/2000/svg" viewBox="0 0 458 156" width="458" height="156">
	<title>fawry_logo-svg</title>
	<style>
		.s0 { fill: #ffffff } 
		.s1 { fill: #ffd328 } 
		.s2 { fill: #006e96 } 
	</style>
	<g id="watermark_1_">
		<g id="Layer">
			<g id="watermark" style="opacity: .6">
				<g id="Layer">
					<g id="Layer">
						<g id="Layer">
							<g id="Layer">
								<path id="Layer" class="s0" d="m192.8 290.2l-5.6 12.8h-2.9l-5.6-12.8h3.2l3.9 9.1 4-9.1z"/>
							</g>
							<g id="Layer">
								<path id="Layer" fill-rule="evenodd" class="s0" d="m202.5 298.7h-7.5c0.3 1.3 1.4 2 2.9 2 1 0 1.8-0.3 2.4-0.9l1.6 1.6c-1 1.1-2.3 1.6-4.1 1.6-3.4 0-5.6-2.1-5.6-5.1 0-2.9 2.2-5 5.2-5 2.9 0 5.2 1.9 5.2 5.1 0 0.2-0.1 0.5-0.1 0.7zm-7.5-1.6h4.9c-0.2-1.3-1.2-2.1-2.5-2.1-1.3 0-2.2 0.8-2.4 2.1z"/>
							</g>
							<g id="Layer">
								<path id="Layer" class="s0" d="m203.7 297.9c0-2.9 2.3-5 5.5-5 2.1 0 3.7 0.9 4.5 2.5l-2.3 1.2c-0.5-1-1.3-1.4-2.2-1.4-1.4 0-2.6 1-2.6 2.7 0 1.8 1.2 2.8 2.6 2.8 0.9 0 1.7-0.4 2.2-1.4l2.3 1.2c-0.8 1.6-2.4 2.5-4.5 2.5-3.2 0-5.5-2.1-5.5-5.1z"/>
							</g>
							<g id="Layer">
								<path id="Layer" class="s0" d="m221.8 302.4c-0.6 0.4-1.4 0.6-2.3 0.6-2.3 0-3.7-1.2-3.7-3.5v-4.1h-1.5v-2.2h1.5v-2.4h2.9v2.4h2.4v2.2h-2.4v4c0 0.9 0.4 1.3 1.2 1.3 0.4 0 0.8-0.1 1.2-0.3z"/>
							</g>
						</g>
						<g id="Layer">
							<path id="Layer" class="s0" d="m241.5 293v2.6c-0.3 0-0.4 0-0.7 0-1.5 0-2.6 0.9-2.6 2.8v4.6h-2.9v-9.9h2.8v1.3c0.7-0.9 1.9-1.4 3.4-1.4z"/>
						</g>
						<g id="Layer">
							<path id="Layer" class="s0" d="m242.3 301.5l1-2.2c1.1 0.8 2.7 1.3 4.2 1.3 1.8 0 2.5-0.6 2.5-1.3 0-2.4-7.4-0.8-7.4-5.6 0-2.2 1.7-4 5.4-4 1.6 0 3.2 0.4 4.4 1.2l-0.9 2.2c-1.2-0.7-2.4-1-3.6-1-1.7 0-2.4 0.7-2.4 1.5 0 2.4 7.5 0.7 7.5 5.4 0 2.2-1.8 4-5.5 4-2 0-4.1-0.6-5.2-1.5z"/>
						</g>
						<g id="Layer">
							<path id="Layer" fill-rule="evenodd" class="s0" d="m264.4 298.7h-7.4c0.2 1.3 1.3 2 2.8 2 1 0 1.8-0.3 2.5-0.9l1.5 1.6c-0.9 1.1-2.3 1.6-4.1 1.6-3.4 0-5.6-2.1-5.6-5.1 0-2.9 2.2-5 5.2-5 2.9 0 5.2 1.9 5.2 5.1 0 0.2-0.1 0.5-0.1 0.7zm-7.5-1.6h4.9c-0.2-1.3-1.2-2.1-2.4-2.1-1.3 0-2.3 0.8-2.5 2.1z"/>
						</g>
						<g id="Layer">
							<path id="Layer" fill-rule="evenodd" class="s0" d="m276 298.7h-7.5c0.3 1.3 1.4 2 2.9 2 1 0 1.8-0.3 2.4-0.9l1.6 1.6c-1 1.1-2.3 1.6-4.1 1.6-3.4 0-5.6-2.1-5.6-5.1 0-2.9 2.2-5 5.2-5 2.9 0 5.2 1.9 5.2 5.1 0 0.2-0.1 0.5-0.1 0.7zm-7.5-1.6h4.9c-0.2-1.3-1.2-2.1-2.5-2.1-1.3 0-2.2 0.8-2.4 2.1z"/>
						</g>
						<g id="Layer">
							<path id="Layer" class="s0" d="m282.2 299.1l-1.4 1.4v2.5h-2.8v-13.6h2.8v7.7l4.2-4h3.4l-4.1 4.2 4.5 5.7h-3.5z"/>
						</g>
						<g id="Layer">
							<path id="Layer" class="s0" d="m235.6 304.4l-2.9-2.9q-0.6 0.8-1.5 1.3-0.1 0.1-0.3 0.2l3.1 3c0.4 0.5 1.1 0.5 1.6 0 0.5-0.4 0.5-1.2 0-1.6z"/>
						</g>
						<g id="Layer">
							<path id="Layer" fill-rule="evenodd" class="s0" d="m233.6 297.6c0 3-2.4 5.4-5.4 5.4-3 0-5.4-2.4-5.4-5.4 0-2.9 2.2-5.2 5-5.4q0.1-0.2 0.1-0.3 0-0.3-0.2-0.5c0.2 0.1 0.4 0.3 0.4 0.5q0 0.2-0.1 0.3 0.1 0 0.2 0c0.2-0.3 0.5-0.5 0.9-0.5q0.5 0 0.8 0.3-0.1 0-0.1 0-0.5 0-0.8 0.2c2.6 0.4 4.6 2.7 4.6 5.4zm-7.7-3.7q0.4-0.1 0.8-0.1 0.7 0 1.3 0.3 0.1 0.1 0.2 0.2 0.1-0.1 0.2-0.2 0.6-0.3 1.2-0.3c0.7 0 1.2 0.2 1.7 0.6-0.5-0.5-1.1-0.8-1.8-0.8q-0.7 0-1.3 0.4-0.6-0.3-1.2-0.3-0.6 0-1.1 0.2zm5.9 2.4c0-1.2-1-2.2-2.2-2.2-0.5 0-1 0.2-1.4 0.6-0.4-0.4-0.9-0.6-1.5-0.6-1.2 0-2.2 1-2.2 2.2 0 0.7 0.5 1.4 1.1 1.8q-0.2 0.5-0.2 1c0 1.5 1.2 2.8 2.8 2.8 1.5 0 2.8-1.3 2.8-2.8q-0.1-0.5-0.2-1c0.6-0.4 1-1.1 1-1.8z"/>
						</g>
						<g id="Layer">
							<path id="Layer" class="s0" d="m230.7 296.1c0 0.5-0.4 0.9-0.9 0.9-0.5 0-0.9-0.4-0.9-0.9 0-0.5 0.4-0.9 0.9-0.9q0.1 0 0.3 0-0.1 0.1-0.1 0.2c0 0.3 0.2 0.5 0.5 0.5q0.1 0 0.1 0 0.1 0.1 0.1 0.2z"/>
						</g>
						<g id="Layer">
							<path id="Layer" class="s0" d="m227.3 296.1c0 0.3-0.4 0.6-0.7 0.6-0.4 0-0.7-0.3-0.7-0.6 0-0.4 0.3-0.7 0.7-0.7q0.1 0 0.2 0 0 0.1 0 0.2c0 0.2 0.1 0.3 0.3 0.3q0.1 0 0.1 0 0.1 0.1 0.1 0.2z"/>
						</g>
						<g id="Layer">
							<g id="Layer">
								<g id="Layer">
									<path id="Layer" class="s0" d="m221.9 296.8h0.6v0.6h-0.6z"/>
								</g>
								<g id="Layer">
									<path id="Layer" class="s0" d="m233.8 296.8h0.6v0.6h-0.6z"/>
								</g>
								<g id="Layer">
									<path id="Layer" class="s0" d="m234.2 297.1h-0.1c0-3.3-2.7-5.9-5.9-5.9-3.3 0-5.9 2.6-5.9 5.9h-0.2c0-1.6 0.7-3.1 1.8-4.3 1.2-1.1 2.7-1.7 4.3-1.7 1.6 0 3.1 0.6 4.2 1.7 1.2 1.2 1.8 2.7 1.8 4.3z"/>
								</g>
							</g>
							<g id="Layer">
								<path id="Layer" class="s0" d="m227.9 290.8h0.6v0.6h-0.6z"/>
							</g>
							<g id="Layer">
								<path id="Layer" class="s0" d="m223.9 291.1h8.5v0.1h-8.5z"/>
							</g>
							<g id="Layer">
								<path id="Layer" class="s0" d="m224.2 291.1c0 0.2-0.1 0.2-0.2 0.2-0.1 0-0.2 0-0.2-0.2 0-0.1 0.1-0.1 0.2-0.1 0.1 0 0.2 0 0.2 0.1z"/>
							</g>
							<g id="Layer">
								<path id="Layer" class="s0" d="m232.6 291.1c0 0.2-0.1 0.2-0.2 0.2-0.1 0-0.2 0-0.2-0.2 0-0.1 0.1-0.1 0.2-0.1 0.1 0 0.2 0 0.2 0.1z"/>
							</g>
						</g>
					</g>
					<g id="Layer">
						<path id="Layer" class="s0" d="m293.4 302.4c0 1.6-2.4 1.6-2.4 0 0-1.5 2.4-1.5 2.4 0z"/>
					</g>
					<g id="Layer">
						<g id="Layer">
							<g id="Layer">
								<path id="Layer" class="s0" d="m140.7 295.5l1.8 6.1 1.9-6.1h2.2l-2.8 8.2h-2.4l-0.8-2.4-0.7-2.7-0.8 2.7-0.8 2.4h-2.3l-2.9-8.2h2.3l1.8 6.1 1.8-6.1z"/>
							</g>
							<g id="Layer">
								<path id="Layer" class="s0" d="m155.7 295.5l1.8 6.1 1.8-6.1h2.3l-2.9 8.2h-2.3l-0.8-2.4-0.8-2.7-0.7 2.7-0.8 2.4h-2.3l-2.9-8.2h2.2l1.9 6.1 1.8-6.1z"/>
							</g>
							<g id="Layer">
								<path id="Layer" class="s0" d="m170.7 295.5l1.8 6.1 1.8-6.1h2.2l-2.8 8.2h-2.3l-0.9-2.4-0.7-2.7-0.7 2.7-0.8 2.4h-2.4l-2.8-8.2h2.2l1.9 6.1 1.7-6.1z"/>
							</g>
						</g>
						<g id="Layer">
							<path id="Layer" class="s0" d="m179.9 302.5c0 1.6-2.4 1.6-2.4 0 0-1.5 2.4-1.5 2.4 0z"/>
						</g>
						<g id="Layer">
							<path id="Layer" class="s0" d="m301.7 302.4c-0.9 0.9-1.9 1.3-3.1 1.3-2.4 0-4.3-1.4-4.3-4.3 0-2.9 1.9-4.3 4.3-4.3 1.1 0 2 0.4 2.9 1.2l-1.3 1.4c-0.4-0.5-1-0.7-1.6-0.7-1.3 0-2.3 1-2.3 2.4 0 1.5 1 2.4 2.3 2.4 0.6 0 1.3-0.2 1.8-0.7z"/>
						</g>
						<g id="Layer">
							<path id="Layer" fill-rule="evenodd" class="s0" d="m310.8 299.5c0 2.3-1.6 4.2-4.2 4.2-2.6 0-4.2-1.9-4.2-4.2 0-2.3 1.6-4.2 4.2-4.2 2.5 0 4.2 1.9 4.2 4.2zm-6.4 0c0 1.2 0.7 2.4 2.2 2.4 1.4 0 2.2-1.2 2.2-2.4 0-1.2-0.9-2.4-2.2-2.4-1.5 0-2.2 1.2-2.2 2.4z"/>
						</g>
						<g id="Layer">
							<path id="Layer" class="s0" d="m317.6 303.7v-4.3c0-1.1-0.6-2.1-1.7-2.1-1.1 0-1.7 1-1.7 2.1v4.3h-2v-8.1h1.8l0.2 1c0.4-0.9 1.4-1.1 2.1-1.1 1 0 2 0.3 2.4 1.5 0.7-1.2 1.7-1.5 2.7-1.5 2.3 0 3.5 1.4 3.5 3.8v4.4h-2v-4.4c0-1-0.5-1.9-1.6-1.9-1.1 0-1.7 0.9-1.7 2v4.3c0 0-2 0-2 0z"/>
						</g>
					</g>
				</g>
			</g>
			<g id="Layer" style="opacity: .6">
				<g id="Layer">
					<g id="Layer">
						<path id="Layer" fill-rule="evenodd" class="s0" d="m325 271.4c0 1-0.7 1.8-1.7 2.1-0.3 0-0.5 0-0.8 0-0.5 0-0.5 0-0.5 0.5q0 3.4 0 6.8 0 1.7-1.8 1.7-12 0-24 0-1.8 0.1-1.8-1.7 0-3.4 0-6.7c0-0.6 0-0.6-0.6-0.6-1.6 0-2.4-0.8-2.4-2.4 0-3.5 0-7 0-10.5-0.1-1.5 1-2.6 2.4-2.4 0.6 0 0.6 0 0.6-0.6q0-5.6 0-11.2c0-0.9 0.3-1.5 1.1-1.8q9.4 0 18.7 0c0.1 0.2 0.3 0.3 0.4 0.4q3.5 4 7 8 0.4 0.4 0.4 1 0 1.6 0 3.3c0 1-0.1 0.8 0.8 0.9 1.2 0 2.2 0.9 2.2 2.1q0 5.5 0 11.1zm-29-24.7q0 5.5 0 10.9c0 0.6 0 0.6 0.5 0.6q5.9 0 11.7 0 5.8 0 11.7 0c0.4 0 0.5-0.1 0.5-0.5q0-1.4 0-2.7c0-0.5 0-0.5-0.5-0.5q-2.9 0-5.7 0c-0.8 0-1.1-0.2-1.1-1q0-3.4 0-6.8c0-0.5 0-0.5-0.6-0.5q-8 0-16 0c-0.5 0-0.5 0-0.5 0.5zm24.4 33.3q0-3 0-6c0-0.5 0-0.5-0.5-0.5q-11.7 0-23.4 0c-0.5 0-0.5 0-0.5 0.5q0 3 0 6c0 0.6 0 0.6 0.6 0.6q5.8 0 11.6 0 5.8 0 11.6 0c0.6 0 0.6 0 0.6-0.6z"/>
					</g>
					<g id="Layer">
						<g id="Layer">
							<path id="Layer" class="s0" d="m306.4 246.1h1.8v1h-1.8z"/>
						</g>
						<g id="Layer">
							<path id="Layer" class="s0" d="m304.7 247.1h1.7v1.1h-1.7z"/>
						</g>
						<g id="Layer">
							<path id="Layer" class="s0" d="m306.4 248.2h1.8v1h-1.8z"/>
						</g>
						<g id="Layer">
							<path id="Layer" class="s0" d="m304.7 249.2h1.7v1.1h-1.7z"/>
						</g>
						<g id="Layer">
							<path id="Layer" class="s0" d="m306.4 250.3h1.8v1h-1.8z"/>
						</g>
						<g id="Layer">
							<path id="Layer" class="s0" d="m304.7 251.3h1.7v1.1h-1.7z"/>
						</g>
						<g id="Layer">
							<path id="Layer" class="s0" d="m306.4 252.4h1.8v1h-1.8z"/>
						</g>
						<g id="Layer">
							<path id="Layer" class="s0" d="m304.7 253.4h1.7v1.1h-1.7z"/>
						</g>
						<g id="Layer">
							<path id="Layer" class="s0" d="m306.4 254.5h1.8v1h-1.8z"/>
						</g>
						<g id="Layer">
							<path id="Layer" class="s0" d="m304.7 255.5h1.7v1.1h-1.7z"/>
						</g>
						<g id="Layer">
							<path id="Layer" class="s0" d="m306.4 256.6h1.8v1h-1.8z"/>
						</g>
						<g id="Layer">
							<path id="Layer" class="s0" d="m304.7 257.6h1.7v1.1h-1.7z"/>
						</g>
					</g>
				</g>
				<g id="Layer">
					<path id="Layer" fill-rule="evenodd" class="s0" d="m166.6 271.4c0 1-0.7 1.8-1.7 2.1-0.2 0-0.5 0-0.8 0-0.5 0-0.5 0-0.5 0.5q0 3.4 0 6.8 0 1.7-1.7 1.7-12.1 0-24.1 0-1.8 0.1-1.8-1.7 0-3.4 0-6.7c0-0.6 0-0.6-0.5-0.6-1.6 0-2.5-0.8-2.5-2.4 0-3.5 0-7 0-10.5 0-1.5 1-2.6 2.5-2.4 0.5 0 0.5 0 0.5-0.6q0.1-5.6 0-11.2c0-0.9 0.4-1.5 1.2-1.8q9.3 0 18.6 0c0.2 0.2 0.3 0.3 0.4 0.4q3.5 4 7.1 8 0.3 0.4 0.3 1 0 1.6 0 3.3c0 1-0.1 0.8 0.8 0.9 1.3 0 2.2 0.9 2.2 2.1q0.1 5.5 0 11.1zm-29-24.7q0 5.5 0 10.9c0 0.6 0 0.6 0.6 0.6q5.8 0 11.6 0 5.9 0 11.7 0c0.5 0 0.5-0.1 0.5-0.5q0-1.4 0-2.7c0-0.5 0-0.5-0.5-0.5q-2.8 0-5.7 0c-0.8 0-1-0.2-1-1q0-3.4 0-6.8c0-0.5-0.1-0.5-0.6-0.5q-8 0-16 0c-0.6 0-0.6 0-0.6 0.5zm24.4 33.3q0-3 0-6c0-0.5 0-0.5-0.5-0.5q-11.7 0-23.4 0c-0.4 0-0.5 0-0.5 0.5q0 3 0 6c0 0.6 0 0.6 0.6 0.6q5.8 0 11.6 0 5.8 0 11.7 0c0.5 0 0.5 0 0.5-0.6z"/>
				</g>
				<g id="Layer">
					<path id="Layer" fill-rule="evenodd" class="s0" d="m138.8 269.7v-7.9h2.8q0.5 0 1 0.2 0.5 0.1 0.9 0.5 0.3 0.3 0.5 0.8 0.2 0.4 0.2 1 0 0.5-0.2 1-0.2 0.4-0.5 0.8-0.4 0.3-0.9 0.5-0.5 0.2-1 0.2h-1.3v2.9c0 0-1.5 0-1.5 0zm2.8-4.3q0.6 0 0.9-0.4 0.3-0.3 0.3-0.7 0-0.2-0.1-0.4-0.1-0.2-0.2-0.4-0.2-0.1-0.4-0.2-0.2-0.1-0.5-0.1h-1.3v2.2z"/>
					<path id="Layer" class="s0" d="m145.3 261.8h1.7l3.2 5.3h0.1l-0.1-1.6v-3.7h1.5v7.9h-1.6l-3.3-5.6h-0.1l0.1 1.5v4.1h-1.5z"/>
					<path id="Layer" class="s0" d="m156.9 265.3h3.9q0 0.2 0 0.4 0.1 0.1 0.1 0.3 0 0.8-0.3 1.5-0.2 0.6-0.7 1.2-0.5 0.5-1.3 0.8-0.7 0.3-1.6 0.3-0.9 0-1.7-0.3-0.7-0.3-1.3-0.8-0.6-0.6-0.9-1.3-0.3-0.8-0.3-1.7 0-0.9 0.3-1.6 0.3-0.8 0.9-1.3 0.6-0.6 1.3-0.9 0.8-0.3 1.7-0.3 0.9 0 1.7 0.3 0.7 0.4 1.3 0.9l-1.1 1q-0.3-0.4-0.8-0.6-0.5-0.2-1.2-0.2-0.5 0-1 0.2-0.5 0.2-0.8 0.5-0.4 0.4-0.6 0.9-0.2 0.5-0.2 1.1 0 0.6 0.2 1.1 0.2 0.5 0.6 0.9 0.3 0.3 0.8 0.5 0.5 0.2 1.1 0.2 0.6 0 1-0.1 0.5-0.2 0.8-0.5 0.2-0.2 0.4-0.5 0.1-0.3 0.2-0.7h-2.5c0 0 0-1.3 0-1.3z"/>
				</g>
				<g id="Layer">
					<path id="Layer" fill-rule="evenodd" class="s0" d="m203 271.4c0 1-0.7 1.8-1.7 2.1-0.2 0-0.5 0-0.8 0-0.5 0-0.5 0-0.5 0.5q0 3.4 0 6.8 0 1.7-1.8 1.7-12 0-24 0-1.8 0.1-1.8-1.7 0-3.4 0-6.7c0-0.6 0-0.6-0.6-0.6-1.5 0-2.4-0.8-2.4-2.4 0-3.5 0-7 0-10.5 0-1.5 1-2.6 2.5-2.4 0.5 0 0.5 0 0.5-0.6q0-5.6 0-11.2c0-0.9 0.4-1.5 1.2-1.8q9.3 0 18.6 0c0.1 0.2 0.3 0.3 0.4 0.4q3.5 4 7 8 0.4 0.4 0.4 1 0 1.6 0 3.3c0 1-0.1 0.8 0.8 0.9 1.3 0 2.2 0.9 2.2 2.1q0 5.5 0 11.1zm-29-24.7q0 5.5 0 10.9c0 0.6 0 0.6 0.6 0.6q5.8 0 11.6 0 5.9 0 11.7 0c0.5 0 0.5-0.1 0.5-0.5q0-1.4 0-2.7c0-0.5 0-0.5-0.5-0.5q-2.8 0-5.7 0c-0.8 0-1.1-0.2-1.1-1q0-3.4 0-6.8c0-0.5 0-0.5-0.5-0.5q-8 0-16 0c-0.6 0-0.6 0-0.6 0.5zm24.4 33.3q0-3 0-6c0-0.5 0-0.5-0.5-0.5q-11.7 0-23.4 0c-0.5 0-0.5 0-0.5 0.5q0 3 0 6c0 0.6 0 0.6 0.6 0.6q5.8 0 11.6 0 5.8 0 11.7 0c0.5 0 0.5 0 0.5-0.6z"/>
				</g>
				<g id="Layer">
					<path id="Layer" fill-rule="evenodd" class="s0" d="m184.1 261.8h1.7l3 7.9h-1.7l-0.6-1.9h-3.1l-0.6 1.9h-1.7zm1.9 4.6l-0.7-2-0.3-0.9h-0.1l-0.2 0.9-0.7 2z"/>
					<path id="Layer" class="s0" d="m190.3 263.5q-0.2 0-0.3 0-0.2-0.1-0.3-0.2-0.2-0.2-0.2-0.3-0.1-0.2-0.1-0.4 0-0.2 0.1-0.4 0-0.1 0.2-0.2 0.1-0.2 0.3-0.2 0.1-0.1 0.3-0.1 0.4 0 0.7 0.3 0.3 0.2 0.3 0.6 0 0.4-0.3 0.7-0.3 0.2-0.7 0.2zm-0.7 6.2v-5.4h1.5v5.4z"/>
				</g>
				<g id="Layer">
					<path id="Layer" fill-rule="evenodd" class="s0" d="m240 271.4c0 1-0.7 1.8-1.7 2.1-0.2 0-0.5 0-0.8 0-0.5 0-0.5 0-0.5 0.5q0 3.4 0 6.8 0 1.7-1.7 1.7-12.1 0-24.1 0-1.8 0.1-1.7-1.7 0-3.4 0-6.7c0-0.6 0-0.6-0.6-0.6-1.6 0-2.5-0.8-2.5-2.4 0-3.5 0.1-7 0-10.5 0-1.5 1-2.6 2.5-2.4 0.6 0 0.6 0 0.6-0.6q0-5.6-0.1-11.2c0-0.9 0.4-1.5 1.2-1.8q9.3 0 18.6 0c0.2 0.2 0.3 0.3 0.4 0.4q3.6 4 7.1 8 0.3 0.4 0.3 1 0 1.6 0 3.3c0 1-0.1 0.8 0.9 0.9 1.2 0 2.1 0.9 2.1 2.1q0.1 5.5 0 11.1zm-29-24.7q0 5.5 0 10.9c0 0.6 0 0.6 0.6 0.6q5.8 0 11.6 0 5.9 0 11.7 0c0.5 0 0.5-0.1 0.5-0.5q0-1.4 0-2.7c0-0.5 0-0.5-0.5-0.5q-2.8 0-5.7 0c-0.8 0-1-0.2-1-1q0-3.4 0-6.8c0-0.5 0-0.5-0.6-0.5q-8 0-16 0c-0.6 0-0.6 0-0.6 0.5zm24.4 33.3q0-3 0-6c0-0.5 0-0.5-0.5-0.5q-11.7 0-23.4 0c-0.4 0-0.5 0-0.5 0.5q0 3 0 6c0 0.6 0 0.6 0.6 0.6q5.8 0 11.6 0 5.9 0 11.7 0c0.5 0 0.5 0 0.5-0.6z"/>
				</g>
				<g id="Layer">
					<path id="Layer" class="s0" d="m215.4 269.8q-0.5 0-1-0.1-0.5-0.1-0.9-0.4-0.3-0.3-0.6-0.7-0.3-0.4-0.5-1l1.4-0.5q0.2 0.6 0.6 0.9 0.3 0.4 1 0.4 0.2 0 0.4 0 0.2-0.1 0.4-0.2 0.2-0.1 0.3-0.3 0.1-0.2 0.1-0.4 0-0.2-0.1-0.4-0.1-0.2-0.3-0.3-0.1-0.2-0.4-0.3-0.3-0.2-0.8-0.3l-0.4-0.2q-0.4-0.1-0.7-0.3-0.3-0.2-0.6-0.5-0.2-0.2-0.4-0.6-0.2-0.3-0.2-0.8 0-0.4 0.2-0.9 0.2-0.4 0.5-0.7 0.3-0.3 0.8-0.4 0.5-0.2 1.1-0.2 0.6 0 1 0.2 0.4 0.1 0.7 0.4 0.3 0.2 0.5 0.5 0.2 0.3 0.3 0.6l-1.3 0.5q-0.1-0.3-0.4-0.6-0.3-0.2-0.8-0.2-0.5 0-0.8 0.2-0.3 0.2-0.3 0.6 0 0.3 0.3 0.6 0.3 0.2 0.9 0.5l0.5 0.1q0.5 0.2 0.9 0.4 0.4 0.2 0.7 0.5 0.3 0.3 0.4 0.7 0.2 0.4 0.2 0.9 0 0.6-0.3 1-0.2 0.5-0.6 0.8-0.4 0.3-0.9 0.4-0.5 0.1-0.9 0.1z"/>
					<path id="Layer" class="s0" d="m218.5 261.8h1.6l1.7 4.7 0.2 1h0.1l0.3-1 1.7-4.7h1.7l-2.9 7.9h-1.6z"/>
					<path id="Layer" class="s0" d="m230.1 265.3h3.9q0 0.2 0 0.4 0 0.1 0 0.3 0 0.8-0.2 1.5-0.2 0.6-0.7 1.2-0.5 0.5-1.3 0.8-0.7 0.3-1.7 0.3-0.8 0-1.6-0.3-0.8-0.3-1.3-0.8-0.6-0.6-0.9-1.3-0.3-0.8-0.3-1.7 0-0.9 0.3-1.6 0.3-0.8 0.9-1.3 0.5-0.6 1.3-0.9 0.8-0.3 1.6-0.3 1 0 1.7 0.3 0.8 0.4 1.3 0.9l-1 1q-0.4-0.4-0.8-0.6-0.5-0.2-1.2-0.2-0.5 0-1 0.2-0.5 0.2-0.9 0.5-0.3 0.4-0.5 0.9-0.3 0.5-0.3 1.1 0 0.6 0.3 1.1 0.2 0.5 0.5 0.9 0.4 0.3 0.9 0.5 0.5 0.2 1 0.2 0.7 0 1.1-0.1 0.4-0.2 0.7-0.5 0.3-0.2 0.4-0.5 0.2-0.3 0.3-0.7h-2.5c0 0 0-1.3 0-1.3z"/>
				</g>
				<g id="Layer">
					<path id="Layer" fill-rule="evenodd" class="s0" d="m276.3 271.4c0 1-0.7 1.8-1.7 2.1-0.3 0-0.5 0-0.8 0-0.5 0-0.5 0-0.5 0.5q0 3.4 0 6.8 0 1.7-1.8 1.7-12 0-24 0-1.8 0.1-1.8-1.7 0-3.4 0-6.7c0-0.6 0-0.6-0.6-0.6-1.6 0-2.4-0.8-2.4-2.4 0-3.5 0-7 0-10.5-0.1-1.5 1-2.6 2.5-2.4 0.5 0 0.5 0 0.5-0.6q0-5.6 0-11.2c0-0.9 0.3-1.5 1.1-1.8q9.4 0 18.7 0c0.1 0.2 0.3 0.3 0.4 0.4q3.5 4 7 8 0.4 0.4 0.4 1 0 1.6 0 3.3c0 1-0.1 0.8 0.8 0.9 1.2 0 2.2 0.9 2.2 2.1q0 5.5 0 11.1zm-29-24.7q0 5.5 0 10.9c0 0.6 0 0.6 0.6 0.6q5.8 0 11.6 0 5.8 0 11.7 0c0.5 0 0.5-0.1 0.5-0.5q0-1.4 0-2.7c0-0.5 0-0.5-0.5-0.5q-2.9 0-5.7 0c-0.8 0-1.1-0.2-1.1-1q0-3.4 0-6.8c0-0.5 0-0.5-0.5-0.5q-8 0-16 0c-0.6 0-0.6 0-0.6 0.5zm24.4 33.3q0-3 0-6c0-0.5 0-0.5-0.5-0.5q-11.7 0-23.4 0c-0.5 0-0.5 0-0.5 0.5q0 3 0 6c0 0.6 0 0.6 0.6 0.6q5.8 0 11.6 0 5.8 0 11.6 0c0.6 0 0.6 0 0.6-0.6z"/>
				</g>
				<g id="Layer">
					<path id="Layer" class="s0" d="m252 263.2v1.8h3.1v1.4h-3.1v1.9h3.5v1.4h-5v-7.9h5v1.4c0 0-3.5 0-3.5 0z"/>
					<path id="Layer" fill-rule="evenodd" class="s0" d="m256.9 269.7v-7.9h2.7q0.6 0 1.1 0.2 0.5 0.1 0.8 0.5 0.4 0.3 0.6 0.8 0.2 0.4 0.2 1 0 0.5-0.2 1-0.2 0.4-0.6 0.8-0.3 0.3-0.8 0.5-0.5 0.2-1.1 0.2h-1.3v2.9c0 0-1.4 0-1.4 0zm2.8-4.3q0.5 0 0.8-0.4 0.3-0.3 0.3-0.7 0-0.2 0-0.4-0.1-0.2-0.3-0.4-0.1-0.1-0.3-0.2-0.3-0.1-0.5-0.1h-1.4v2.2z"/>
					<path id="Layer" class="s0" d="m265.8 269.8q-0.5 0-1-0.1-0.4-0.1-0.8-0.4-0.4-0.3-0.7-0.7-0.3-0.4-0.4-1l1.4-0.5q0.1 0.6 0.5 0.9 0.4 0.4 1 0.4 0.2 0 0.5 0 0.2-0.1 0.3-0.2 0.2-0.1 0.3-0.3 0.1-0.2 0.1-0.4 0-0.2-0.1-0.4 0-0.2-0.2-0.3-0.2-0.2-0.5-0.3-0.3-0.2-0.7-0.3l-0.5-0.2q-0.3-0.1-0.7-0.3-0.3-0.2-0.5-0.5-0.3-0.2-0.5-0.6-0.1-0.3-0.1-0.8 0-0.4 0.1-0.9 0.2-0.4 0.6-0.7 0.3-0.3 0.8-0.4 0.4-0.2 1-0.2 0.6 0 1 0.2 0.5 0.1 0.8 0.4 0.3 0.2 0.5 0.5 0.1 0.3 0.2 0.6l-1.3 0.5q-0.1-0.3-0.4-0.6-0.3-0.2-0.8-0.2-0.5 0-0.8 0.2-0.3 0.2-0.3 0.6 0 0.3 0.3 0.6 0.3 0.2 1 0.5l0.5 0.1q0.5 0.2 0.9 0.4 0.3 0.2 0.6 0.5 0.3 0.3 0.5 0.7 0.1 0.4 0.1 0.9 0 0.6-0.2 1-0.3 0.5-0.7 0.8-0.4 0.3-0.9 0.4-0.4 0.1-0.9 0.1z"/>
				</g>
				<g id="Layer">
					<path id="Layer" class="s0" d="m300.4 268.2l4-5h-3.8v-1.4h5.5v1.5l-3.9 5h4v1.4h-5.8c0 0 0-1.5 0-1.5z"/>
					<path id="Layer" class="s0" d="m307.4 261.8h1.5v7.9h-1.5z"/>
					<path id="Layer" fill-rule="evenodd" class="s0" d="m310.5 269.7v-7.9h2.8q0.5 0 1 0.2 0.5 0.1 0.9 0.5 0.3 0.3 0.5 0.8 0.3 0.4 0.3 1 0 0.5-0.3 1-0.2 0.4-0.5 0.8-0.4 0.3-0.9 0.5-0.5 0.2-1 0.2h-1.3v2.9c0 0-1.5 0-1.5 0zm2.8-4.3q0.6 0 0.9-0.4 0.3-0.3 0.3-0.7 0-0.2-0.1-0.4-0.1-0.2-0.2-0.4-0.2-0.1-0.4-0.2-0.2-0.1-0.5-0.1h-1.3v2.2z"/>
				</g>
			</g>
			<g id="Layer" style="opacity: .6">
				<path id="Layer" class="s0" d="m279.1 262.3h9.1v2.2h-9.1zm0 3.9h9.1v2.2h-9.1z"/>
			</g>
		</g>
		<g id="Layer" style="opacity: .6">
			<path id="Layer" fill-rule="evenodd" class="s0" d="m135.8 307.9h1.6c1.2 0 2.1 0.8 2.1 2 0 1.1-0.9 1.9-2.1 1.9h-1.6zm1.5 3.6c1.1 0 1.8-0.7 1.8-1.6 0-0.9-0.7-1.6-1.8-1.6h-1.1v3.2z"/>
			<path id="Layer" fill-rule="evenodd" class="s0" d="m144.1 309.9c0-1.2 0.9-2.1 2.1-2.1 1.2 0 2.1 0.9 2.1 2.1 0 1.1-0.9 2-2.1 2-1.2 0-2.1-0.9-2.1-2zm3.8 0c0-1-0.7-1.7-1.7-1.7-0.9 0-1.6 0.7-1.6 1.7 0 0.9 0.7 1.6 1.6 1.6 1 0 1.7-0.7 1.7-1.6z"/>
			<path id="Layer" class="s0" d="m158.6 307.9l-1.3 3.9h-0.5l-1.1-3.3-1.2 3.3h-0.4l-1.4-3.9h0.5l1.1 3.4 1.2-3.4h0.4l1.1 3.4 1.2-3.4z"/>
			<path id="Layer" class="s0" d="m166.7 307.9v3.9h-0.3l-2.5-3.2v3.2h-0.5v-3.9h0.4l2.5 3.2v-3.2z"/>
			<path id="Layer" class="s0" d="m172.1 307.9h0.4v3.6h2.2v0.3h-2.6z"/>
			<path id="Layer" fill-rule="evenodd" class="s0" d="m179.1 309.9c0-1.2 0.8-2.1 2-2.1 1.2 0 2.1 0.9 2.1 2.1 0 1.1-0.9 2-2.1 2-1.2 0-2-0.9-2-2zm3.7 0c0-1-0.7-1.7-1.7-1.7-0.9 0-1.6 0.7-1.6 1.7 0 0.9 0.7 1.6 1.6 1.6 1 0 1.7-0.7 1.7-1.6z"/>
			<path id="Layer" fill-rule="evenodd" class="s0" d="m190.6 310.8h-2.2l-0.4 1h-0.5l1.8-3.9h0.4l1.8 3.9h-0.4zm-0.1-0.3l-1-2.1-0.9 2.1z"/>
			<path id="Layer" fill-rule="evenodd" class="s0" d="m196.3 307.9h1.6c1.2 0 2.1 0.8 2.1 2 0 1.1-0.9 1.9-2.1 1.9h-1.6zm1.6 3.6c1 0 1.7-0.7 1.7-1.6 0-0.9-0.7-1.6-1.7-1.6h-1.2v3.2z"/>
			<path id="Layer" fill-rule="evenodd" class="s0" d="m213 310.8h-2.2l-0.4 1h-0.5l1.8-3.9h0.5l1.8 3.9h-0.5zm-0.1-0.3l-1-2.1-0.9 2.1z"/>
			<path id="Layer" class="s0" d="m218.7 307.9h0.4v3.6h2.2v0.3h-2.6z"/>
			<path id="Layer" class="s0" d="m226.1 307.9h0.4v3.6h2.2v0.3h-2.6z"/>
			<path id="Layer" class="s0" d="m239.4 308.2v1.6h2.1v0.4h-2.1v1.6h-0.4v-3.9h2.7v0.3c0 0-2.3 0-2.3 0z"/>
			<path id="Layer" class="s0" d="m246.7 307.9h0.4v3.9h-0.4z"/>
			<path id="Layer" class="s0" d="m252.5 307.9h0.4v3.6h2.2v0.3h-2.6z"/>
			<path id="Layer" class="s0" d="m262.6 311.5v0.3h-2.7v-3.9h2.7v0.3h-2.3v1.4h2v0.4h-2v1.5z"/>
			<path id="Layer" class="s0" d="m273.7 308.2v1.6h2v0.4h-2v1.6h-0.4v-3.9h2.7v0.3c0 0-2.3 0-2.3 0z"/>
			<path id="Layer" fill-rule="evenodd" class="s0" d="m280.5 309.9c0-1.2 0.9-2.1 2.1-2.1 1.2 0 2 0.9 2 2.1 0 1.1-0.8 2-2 2-1.2 0-2.1-0.9-2.1-2zm3.7 0c0-1-0.7-1.7-1.6-1.7-1 0-1.7 0.7-1.7 1.7 0 0.9 0.7 1.6 1.7 1.6 0.9 0 1.6-0.7 1.6-1.6z"/>
			<path id="Layer" fill-rule="evenodd" class="s0" d="m292.4 311.8l-1-1.2q-0.1 0-0.3 0h-1v1.2h-0.4v-3.9h1.4c1 0 1.6 0.5 1.6 1.3 0 0.7-0.3 1.1-0.9 1.3l1 1.3c0 0-0.4 0-0.4 0zm-0.1-2.6c0-0.6-0.4-1-1.2-1h-1v2h1c0.8 0 1.2-0.3 1.2-1z"/>
			<path id="Layer" class="s0" d="m301.9 307.9v3.9h-0.4v-3.1l-1.5 2.6h-0.2l-1.6-2.6v3.1h-0.4v-3.9h0.4l1.7 2.9 1.7-2.9c0 0 0.3 0 0.3 0z"/>
			<path id="Layer" fill-rule="evenodd" class="s0" d="m309.7 310.8h-2.2l-0.4 1h-0.5l1.8-3.9h0.5l1.8 3.9h-0.5zm-0.1-0.3l-1-2.1-0.9 2.1z"/>
			<path id="Layer" class="s0" d="m316 308.2h-1.4v-0.3h3.2v0.3h-1.4v3.6h-0.4c0 0 0-3.6 0-3.6z"/>
			<path id="Layer" class="s0" d="m322.1 311.3l0.1-0.3c0.3 0.3 0.8 0.5 1.3 0.5 0.8 0 1.1-0.3 1.1-0.7 0-1.1-2.4-0.4-2.4-1.9 0-0.6 0.4-1.1 1.4-1.1 0.5 0 0.9 0.2 1.2 0.4l-0.1 0.3c-0.3-0.2-0.7-0.3-1.1-0.3-0.7 0-1 0.3-1 0.7 0 1.1 2.4 0.4 2.4 1.9 0 0.6-0.5 1.1-1.5 1.1-0.6 0-1.1-0.3-1.4-0.6z"/>
		</g>
	</g>
	<g id="Layer">
	</g>
	<g id="Layer">
		<g id="Layer">
			<g id="Layer">
				<path id="Layer" fill-rule="evenodd" class="s1" d="m442.6 150.5q-213.6 0-427.2 0c-0.3-0.1-0.6-0.2-0.9-0.3-4.9-0.5-8.7-3.8-10-8.5q-0.3-0.8-0.5-1.6 0-61.1 0-122.2c0.1-0.2 0.2-0.5 0.3-0.8 1.1-4.8 4-7.9 8.9-9.1 0.7-0.2 1.4-0.3 2.2-0.5q213.6 0 427.2 0c0.3 0.1 0.6 0.2 0.9 0.3 4.9 0.5 8.7 3.8 10 8.5q0.2 0.8 0.5 1.6 0 61.1 0 122.2c-0.1 0.2-0.2 0.5-0.3 0.8-1.1 4.8-4 7.9-8.9 9.1-0.7 0.2-1.4 0.3-2.2 0.5zm-165.5-68.7q-0.1 0-0.3 0-0.2-0.6-0.4-1.2-3.1-10.6-6.3-21.2c-0.8-2.6-2.7-4.1-5.3-4.2-2.9-0.1-5.7 0-8.6 0q-1.8 0-1.8 1.9c0 0.6 0.1 1.3 0.2 1.9 0.4 1.2 0.8 2.4 1.2 3.7q5.8 18 11.6 36c0.9 2.7 2.8 4.1 5.7 4.1q2.6 0 5.3 0c3.1 0 5.1-1.4 6-4.4q3.8-11.8 7.5-23.7c0.1-0.4 0.3-0.8 0.5-1.4 0.3 0.7 0.5 1.1 0.6 1.5q3.7 11.9 7.4 23.7 1.4 4.3 6 4.3 2.6 0 5.2 0c3.1 0 5-1.3 5.9-4.3q5.4-16.6 10.7-33.2c0.8-2.4 1.6-4.8 2.2-7.3 0.5-1.9-0.3-2.8-2.3-2.8q-3.5 0-7 0c-3.7 0-5.5 1.3-6.6 4.9q-2.7 9.3-5.5 18.6-0.4 1.5-1 3.1c-0.4-0.6-0.7-1.3-0.9-2q-3-10.3-6-20.7c-0.8-2.7-2.5-3.9-5.3-3.9q-3.3 0-6.5 0c-3.1 0-4.7 1.1-5.6 4.1-1.2 4.2-2.4 8.5-3.7 12.7q-1.4 4.9-2.9 9.8zm-40.7 17.2c0.1 0.4 0.1 0.5 0.1 0.7 0.2 2.4 0.9 3.1 3.3 3.1q3.5 0 7 0c2.2 0 3-0.9 3-3q0.1-13.6 0-27.2c0-3-0.5-5.9-1.8-8.5-2.6-5-6.9-7.6-12.1-8.9-4.8-1.2-9.7-1.1-14.5-0.7-3.6 0.3-7 0.9-10.3 2.3-3.9 1.8-6.3 4.7-6.7 9.1-0.1 2.3 0.9 3.5 3.1 3.5q2.9 0 5.7 0c2 0 3.7-0.7 5-2.2 0.6-0.7 1.3-1.2 2.1-1.7 2-1.1 4.2-1.4 6.4-1.4 5.6 0.1 7.9 2.2 8.5 7.7 0.1 1.2-0.2 1.5-1.3 1.5-4.5 0-9 0-13.5 0-3.4 0-6.7 0.5-9.9 1.8-5.9 2.4-9.3 6.6-9.5 13.1-0.1 5.8 3 10.7 8.8 13.3 3.1 1.5 6.4 2 9.8 2.2 5.3 0.3 10.3-0.7 14.8-3.5 0.7-0.3 1.3-0.7 2-1.2zm165.4 0.3c-0.6 2.4-1.4 4.6-3.1 6.4-1.7 2-4 2.7-6.6 2.3-1.8-0.3-3.7-0.5-5.5-0.6-1.7 0-2.7 1-2.8 2.7q0 2.2 0 4.3c0 1.9 0.8 3 2.8 3.2 3.8 0.3 7.6 0.8 11.4 0.8 6.3 0.1 11-2.8 14-8.3 1.6-3.1 3-6.2 3.9-9.5 4-14.1 7.8-28.3 11.7-42.4 0.5-2-0.3-3-2.4-3q-4 0-8.1 0c-2 0-3.3 1-3.9 2.9q-0.4 1.4-0.8 2.8-3.7 13.3-7.3 26.6c-0.3 0.9-0.7 1.2-1.6 1-1.6-0.4-2.7-1.2-3.7-2.4-1.8-2.3-2.8-4.9-3.7-7.6-2.1-6.7-4.1-13.4-6.1-20.1-0.7-2.1-2.1-3.2-4.3-3.2q-4.1-0.1-8.2 0c-1.9 0-2.7 1.1-2.2 2.9 2.3 7.5 4.5 15.1 6.9 22.6 1.3 4.3 3.1 8.4 5.9 12 2.5 3.2 5.7 5.3 9.8 6 1.2 0.3 2.5 0.4 3.9 0.6zm-237.1-20.4q-0.1 0-0.1 0 0 10.4 0 20.7c0 2.4 0.8 3.2 3.3 3.2q4 0 7.9 0c2.6 0 3.4-0.8 3.4-3.3 0-8.3 0-16.7 0-25-0.1-1.1 0.3-1.5 1.4-1.5 4.6 0.1 9.1 0.1 13.7 0.1q2.9-0.1 2.9-2.9 0.1-2.2 0-4.4c0-2.4-0.8-3.2-3.2-3.2-4.5 0-8.9 0-13.4 0-1.2 0.1-1.5-0.3-1.4-1.4 0.1-1.2 0.1-2.5 0.2-3.7 0.5-4 2.2-6.1 5.6-6.9 3.5-0.8 7.1-1.1 10.8-0.4 1.3 0.3 2.7 0.3 4 0.4 2 0 2.9-1 3-2.9q0-2 0-4c0-1.9-0.8-2.9-2.7-3.3q-2.3-0.4-4.6-0.6c-5.9-0.5-11.9-0.5-17.8 0.9-5.3 1.3-9.6 4.1-11.4 9.5-0.9 2.6-1.5 5.4-1.6 8.2-0.2 6.8 0 13.7 0 20.5zm186.7-18.4c0-1.1 0-1.8 0-2.6-0.1-1.7-1.1-2.7-2.8-2.7q-4.5-0.1-9 0-2.9 0-2.9 2.9 0 20.9 0 41.8 0 2.9 2.9 2.9 4.2 0 8.4 0c2.5 0 3.4-0.8 3.4-3.3 0-8 0.1-16-0.1-24 0-2.5 0.7-4.2 2.6-5.9 2.9-2.6 6.2-4 10.2-3.6 2 0.1 4 0.2 6 0.2 1.7 0 2.7-1 2.7-2.7q0.1-3.3 0-6.6c0-1.6-1-2.6-2.6-2.6-5.5-0.1-10.7 0.9-15.4 3.9-1.1 0.7-2.1 1.4-3.4 2.3z"/>
				<path id="Layer" class="s2" d="m277.1 81.8q1.5-4.9 2.9-9.8c1.3-4.2 2.5-8.5 3.7-12.7 0.9-3 2.5-4.1 5.6-4.1q3.2 0 6.5 0c2.8 0 4.5 1.2 5.3 3.9q3 10.4 6 20.7c0.2 0.7 0.5 1.4 0.9 2q0.6-1.6 1-3.1 2.8-9.3 5.5-18.6c1.1-3.6 2.9-4.9 6.6-4.9q3.5 0 7 0c2 0 2.8 0.9 2.3 2.8-0.6 2.5-1.4 4.9-2.2 7.3q-5.3 16.6-10.7 33.2c-0.9 3-2.8 4.3-5.9 4.3q-2.6 0-5.2 0-4.6 0-6-4.3-3.7-11.8-7.4-23.7c-0.1-0.4-0.3-0.8-0.6-1.5-0.2 0.6-0.4 1-0.5 1.4q-3.7 11.9-7.5 23.7c-0.9 3-2.9 4.4-6 4.4q-2.7 0-5.3 0c-2.9 0-4.8-1.4-5.7-4.1q-5.8-18-11.6-36c-0.4-1.3-0.8-2.5-1.2-3.7-0.1-0.6-0.2-1.3-0.2-1.9q0-1.9 1.8-1.9c2.9 0 5.7-0.1 8.6 0 2.6 0.1 4.5 1.6 5.3 4.2q3.2 10.6 6.3 21.2 0.2 0.6 0.4 1.2 0.2 0 0.3 0z"/>
				<path id="Layer" fill-rule="evenodd" class="s2" d="m236.4 99c-0.7 0.5-1.3 0.8-2 1.2-4.5 2.8-9.5 3.8-14.8 3.5-3.4-0.2-6.7-0.7-9.8-2.2-5.8-2.6-8.9-7.5-8.8-13.3 0.2-6.5 3.6-10.7 9.5-13.1 3.2-1.3 6.5-1.8 9.9-1.8 4.5 0 9 0 13.5 0 1.1 0 1.4-0.3 1.3-1.5-0.6-5.5-2.9-7.6-8.5-7.7-2.2 0-4.4 0.3-6.4 1.4-0.8 0.4-1.5 1-2.1 1.7-1.3 1.5-3 2.2-5 2.2q-2.8 0-5.7 0c-2.2 0-3.2-1.2-3.1-3.5 0.4-4.4 2.8-7.3 6.7-9.1 3.3-1.4 6.7-2 10.3-2.3 4.8-0.4 9.7-0.5 14.5 0.7 5.2 1.3 9.5 3.9 12.1 8.9 1.3 2.6 1.8 5.5 1.8 8.5q0.1 13.6 0 27.2c0 2.1-0.8 3-3 3q-3.5 0-7 0c-2.4 0-3.1-0.7-3.3-3.1 0-0.2 0-0.3-0.1-0.7zm-8.6-15.9q0 0.1 0 0.1c-2.2 0-4.5-0.1-6.7 0-2.1 0.2-3.9 1.1-4.9 3.2-1.4 3 0.3 6.4 3.9 7.1 5.3 1.1 10.2-0.6 14.7-3.4 0.3-0.1 0.4-0.7 0.4-1.1 0.1-1.6 0-3.1 0.1-4.7 0-0.9-0.4-1.2-1.2-1.2-2.1 0.1-4.2 0-6.3 0z"/>
				<path id="Layer" class="s2" d="m401.8 99.3c-1.4-0.2-2.7-0.3-3.9-0.5-4.1-0.8-7.3-2.9-9.8-6.1-2.8-3.6-4.6-7.7-5.9-12-2.4-7.5-4.6-15.1-6.9-22.6-0.5-1.8 0.3-2.9 2.2-2.9q4.1-0.1 8.2 0c2.2 0 3.6 1.1 4.3 3.2 2 6.7 4 13.4 6.1 20.1 0.9 2.7 1.9 5.3 3.7 7.6 1 1.2 2.1 2 3.7 2.4 0.9 0.2 1.3-0.1 1.6-1q3.6-13.3 7.3-26.6 0.4-1.4 0.8-2.8c0.6-1.9 1.9-2.9 3.9-2.9q4.1 0 8.1 0c2.1 0 2.9 1 2.4 3-3.9 14.1-7.7 28.3-11.7 42.4-0.9 3.3-2.3 6.4-3.9 9.5-3 5.5-7.7 8.4-14 8.3-3.8 0-7.6-0.5-11.4-0.8-2-0.2-2.8-1.3-2.8-3.2q0-2.1 0-4.3c0.1-1.7 1.1-2.7 2.8-2.7 1.8 0.1 3.7 0.3 5.5 0.6 2.6 0.4 4.9-0.3 6.6-2.3 1.7-1.8 2.5-4 3.1-6.4z"/>
				<path id="Layer" class="s2" d="m164.7 78.9c0-6.8-0.2-13.7 0-20.5 0.1-2.8 0.7-5.6 1.6-8.2 1.8-5.4 6.1-8.2 11.4-9.5 5.9-1.4 11.9-1.4 17.8-0.9q2.3 0.2 4.6 0.6c1.9 0.4 2.7 1.4 2.7 3.3q0 2 0 4c-0.1 1.9-1 2.9-3 2.9-1.3-0.1-2.7-0.1-4-0.4-3.7-0.7-7.3-0.4-10.8 0.4-3.4 0.8-5.1 2.9-5.6 6.9-0.1 1.2-0.1 2.5-0.2 3.7-0.1 1.1 0.2 1.5 1.4 1.4 4.5 0 8.9 0 13.4 0 2.4 0 3.2 0.8 3.2 3.2q0.1 2.2 0 4.4 0 2.8-2.9 2.9c-4.6 0-9.1 0-13.7-0.1-1.1 0-1.4 0.4-1.4 1.5 0 8.3 0 16.7 0 25 0 2.5-0.8 3.3-3.3 3.3q-4 0-8 0c-2.5 0-3.3-0.8-3.3-3.2q0-10.3 0-20.7 0 0 0.1 0z"/>
				<path id="Layer" class="s2" d="m351.4 60.5c1.3-0.9 2.3-1.6 3.4-2.3 4.7-3 9.9-4 15.4-3.9 1.6 0 2.6 1 2.6 2.6q0.1 3.3 0 6.6c0 1.7-1 2.7-2.7 2.7-2 0-4-0.1-6-0.2-4-0.4-7.3 1-10.2 3.7-1.9 1.6-2.6 3.3-2.6 5.8 0.2 8 0.1 16 0.1 24 0 2.5-0.9 3.3-3.4 3.3q-4.2 0-8.4 0-2.9 0-2.9-2.9 0-20.9 0-41.8 0-2.9 2.9-2.9 4.5-0.1 9 0c1.7 0 2.7 1 2.8 2.7 0 0.8 0 1.5 0 2.6z"/>
				<path id="Layer" class="s1" d="m227.8 83.1c2.1 0 4.2 0.1 6.3 0 0.8 0 1.2 0.3 1.2 1.2-0.1 1.6 0 3.1-0.1 4.7 0 0.4-0.1 1-0.4 1.1-4.5 2.8-9.4 4.5-14.7 3.4-3.6-0.7-5.3-4.1-3.9-7.1 1-2.1 2.8-3 4.9-3.2 2.2-0.1 4.5 0 6.7 0q0 0 0-0.1z"/>
			</g>
			<g id="Layer">
				<path id="Layer" class="s0" d="m141.9 78.6c0 31.1-25.3 56.4-56.5 56.4-5.9 0-11.6-0.9-17-2.6-8.1-2.5-15.4-6.9-21.5-12.5-11-10.3-17.9-25-17.9-41.3 0-31.2 25.2-56.5 56.4-56.5 6.8 0 13.3 1.2 19.3 3.3 7.8 2.9 14.8 7.4 20.5 13.1 10.3 10.2 16.7 24.4 16.7 40.1z"/>
				<path id="Layer" class="s2" d="m111.6 102.5l-7.6-3.8c0 0-12.9 23.6-35.6 33.7-8.1-2.5-15.4-6.9-21.5-12.5 5-0.8 13-3.3 21.5-11.6 13.9-13.6 17-21.1 17-21.1l-5.9-4c-2-1.3-1.6-4.4 0.7-5.2l26.1-9.1c1.7-0.7 3.6 0.5 3.9 2.4l3.8 29.5c0.2 1.4-1.2 2.3-2.4 1.7z"/>
				<path id="Layer" class="s2" d="m119.5 69.8c-0.7 1.7-3 1.4-3.3-0.3l-1.7-10-12.9 4c-1.5 0.5-2.7-1-2.1-2.4 1.7-3.5 4.2-9.6 6.1-17.5 1.8-7.4 0.5-13.9-0.9-18.2 7.8 2.9 14.8 7.4 20.5 13.1 1.1 11.8-3 24.4-5.7 31.3z"/>
			</g>
		</g>
	</g>
</svg>